<svg width="120" height="120" viewBox="0 0 120 120" fill="none" xmlns="http://www.w3.org/2000/svg">
<rect x="2" y="2" width="116" height="116" rx="58" fill="#2C2C2C"/>
<rect x="2" y="2" width="116" height="116" rx="58" stroke="white" stroke-width="4"/>
<path d="M66.6663 53.3335L53.333 66.6668" stroke="white" stroke-width="1.5" stroke-linecap="round" stroke-linejoin="round"/>
<path d="M54.667 53.3335H66.667V65.3335" stroke="white" stroke-width="1.5" stroke-linecap="round" stroke-linejoin="round"/>
<path d="M93.5751 72.6829C93.7774 72.1436 94.0734 71.6736 94.463 71.2729C94.8526 70.8723 95.2983 70.561 95.8002 70.3392C96.3096 70.1202 96.8471 69.9972 97.4127 69.9701C97.9829 69.9534 98.5489 70.0504 99.1106 70.2612C99.6724 70.472 100.159 70.7698 100.57 71.1548C100.978 71.5472 101.298 71.992 101.53 72.4892C101.767 72.9967 101.895 73.5319 101.915 74.0946C101.939 74.6677 101.844 75.2388 101.631 75.808C101.397 76.4297 101.061 76.9615 100.622 77.4034C100.183 77.8452 99.6746 78.163 99.0978 78.3567L98.5503 77.1515C98.967 77.043 99.3345 76.8263 99.653 76.5015C99.9789 76.1794 100.226 75.7937 100.395 75.3443C100.597 74.805 100.656 74.2845 100.571 73.7826C100.49 73.291 100.282 72.8541 99.9473 72.472C99.6122 72.09 99.1675 71.7949 98.6132 71.587C98.0589 71.379 97.5262 71.3072 97.0149 71.3718C96.5083 71.4466 96.0622 71.6337 95.6763 71.9333C95.2905 72.2328 95.0048 72.6298 94.8193 73.1241C94.6226 73.6484 94.5476 74.133 94.5943 74.5777C94.6458 75.0328 94.8208 75.4317 95.1194 75.7745C95.4255 76.12 95.8557 76.3968 96.41 76.6048L95.5222 77.1945L96.7827 73.8352L97.9624 74.2778L96.5038 78.1652L96.324 78.0977C95.3877 77.7464 94.672 77.2856 94.1768 76.7153C93.6788 76.1525 93.3844 75.5251 93.2937 74.8331C93.203 74.1411 93.2968 73.4244 93.5751 72.6829Z" fill="white"/>
<path d="M91.0872 78.4273L97.916 83.3188L97.1124 84.4407L90.2835 79.5491L91.0872 78.4273ZM90.5351 79.1979L91.5594 79.9317L88.8202 83.7558L87.7959 83.0221L90.5351 79.1979ZM93.53 81.3432L94.5153 82.049L92.0137 85.5415L91.0284 84.8357L93.53 81.3432ZM96.3396 83.3557L97.3639 84.0895L94.6596 87.8648L93.6353 87.1311L96.3396 83.3557Z" fill="white"/>
<path d="M84.735 86.1794L90.1599 92.2749L89.1291 93.1924L83.7041 87.0968L84.735 86.1794ZM91.5256 89.694L92.3633 90.6353L87.2448 95.1906L86.4071 94.2494L91.5256 89.694Z" fill="white"/>
<path d="M75.8744 92.3398L79.3475 99.9882L78.091 100.559L74.6179 92.9104L75.8744 92.3398Z" fill="white"/>
<path d="M71.2886 94.3638L73.1449 102.556L72.2086 102.768L71.4489 101.316L69.9427 94.6688L71.2886 94.3638ZM65.6125 95.6499L71.9667 100.941L72.2086 102.768L65.8544 97.4777L65.6125 95.6499ZM65.6125 95.6499L66.3483 96.9966L67.8784 103.749L66.5325 104.054L64.6762 95.8621L65.6125 95.6499Z" fill="white"/>
<path d="M55.5974 95.7536L54.3456 103.817L52.9819 103.605L54.2338 95.5419L55.5974 95.7536ZM57.2057 103.229L57.0124 104.474L50.2415 103.423L50.4348 102.178L57.2057 103.229Z" fill="white"/>
<path d="M45.4247 92.797C45.9737 93.039 46.441 93.3673 46.8265 93.782C47.212 94.1966 47.5051 94.6624 47.7058 95.1792C47.9032 95.7033 47.9995 96.2484 47.9948 96.8146C47.9796 97.3848 47.8509 97.9445 47.609 98.4936C47.367 99.0426 47.0424 99.5115 46.635 99.9003C46.2204 100.286 45.7583 100.58 45.2488 100.784C44.7288 100.992 44.191 101.092 43.6354 101.083C43.0692 101.078 42.5116 100.955 41.9625 100.713C41.4135 100.471 40.9498 100.144 40.5716 99.733C40.1829 99.3256 39.8898 98.8599 39.6924 98.3358C39.4918 97.819 39.3991 97.2755 39.4143 96.7052C39.4191 96.139 39.5424 95.5814 39.7843 95.0323C40.0263 94.4833 40.3562 94.0123 40.7741 93.6195C41.1815 93.2308 41.6435 92.9361 42.1603 92.7354C42.6698 92.5316 43.2076 92.432 43.7738 92.4367C44.3326 92.4382 44.8829 92.5583 45.4247 92.797ZM44.9143 94.0146C44.3946 93.7856 43.8891 93.7027 43.3978 93.766C42.8993 93.826 42.4499 94.0126 42.0496 94.3258C41.6388 94.6431 41.314 95.0726 41.0753 95.6143C40.8978 96.017 40.8024 96.412 40.789 96.7995C40.7651 97.1911 40.817 97.5593 40.9448 97.9042C41.0694 98.2563 41.2637 98.5692 41.5277 98.8429C41.7845 99.1134 42.1068 99.3342 42.4948 99.5051C43.0073 99.731 43.5128 99.8138 44.0113 99.7538C44.4993 99.6978 44.9471 99.5149 45.3547 99.2049C45.755 98.8917 46.0745 98.4643 46.3132 97.9226C46.4907 97.5199 46.593 97.1191 46.6201 96.7202C46.6368 96.3254 46.5848 95.9572 46.4643 95.6156C46.3365 95.2708 46.1422 94.9579 45.8814 94.6768C45.6174 94.4031 45.295 94.1824 44.9143 94.0146Z" fill="white"/>
<path d="M36.7354 87.3163C37.2166 87.7261 37.5557 88.204 37.7527 88.75C37.9496 89.2961 38 89.8539 37.9038 90.4234C37.7963 90.9938 37.5376 91.5196 37.1279 92.0008L33.7512 95.9658L32.7006 95.0711L36.0695 91.1152C36.334 90.8046 36.5008 90.4791 36.57 90.1387C36.628 89.7992 36.5987 89.4696 36.4823 89.1498C36.3607 88.8361 36.1598 88.5599 35.8796 88.3213C35.5933 88.0775 35.2887 87.9232 34.9657 87.8582C34.6375 87.7994 34.3135 87.8282 33.9937 87.9447C33.6687 88.0672 33.3765 88.2807 33.1172 88.5852L29.7405 92.5503L28.6899 91.6555L32.0743 87.6814C32.4841 87.2002 32.9594 86.8642 33.5002 86.6733C34.0411 86.4824 34.5937 86.4381 35.158 86.5404C35.7224 86.6427 36.2482 86.9014 36.7354 87.3163Z" fill="white"/>
<path d="M29.8199 79.45C30.1667 79.9494 30.3997 80.4743 30.5189 81.0246C30.6269 81.5729 30.6295 82.1166 30.5265 82.6556C30.417 83.1991 30.208 83.7046 29.8995 84.1721C29.5844 84.6441 29.1805 85.0512 28.6877 85.3934C28.1948 85.7357 27.6755 85.9696 27.1298 86.0954C26.5775 86.2257 26.0308 86.2449 25.4898 86.1531C24.9488 86.0613 24.4403 85.869 23.9642 85.5762C23.4836 85.2768 23.07 84.8775 22.7232 84.3781C22.3353 83.8195 22.0919 83.2727 21.993 82.7375C21.8941 82.2023 21.8928 81.6675 21.9892 81.1331L23.2919 81.368C23.21 81.7269 23.2092 82.0975 23.2897 82.4799C23.3656 82.8557 23.5382 83.2375 23.8074 83.6252C24.0447 83.9669 24.3206 84.2379 24.635 84.4383C24.9495 84.6388 25.2915 84.7665 25.6609 84.8217C26.0192 84.8748 26.3883 84.8523 26.7681 84.7541C27.148 84.6559 27.5186 84.4813 27.88 84.2303C28.2414 83.9794 28.5345 83.6931 28.7592 83.3715C28.9839 83.0499 29.1372 82.7097 29.2192 82.3508C29.29 81.99 29.2865 81.6272 29.2085 81.2625C29.1306 80.8978 28.973 80.5446 28.7357 80.2029C28.4437 79.7824 28.1349 79.4709 27.8092 79.2684C27.4725 79.064 27.1217 78.9375 26.7568 78.8889L26.9917 77.5863C27.5327 77.6781 28.0435 77.8737 28.5241 78.173C29.0047 78.4724 29.4366 78.8981 29.8199 79.45Z" fill="white"/>
<path d="M27.2154 75.2614L19.3073 78.0939L18.842 76.7947L26.75 73.9622L27.2154 75.2614ZM25.4147 70.2342L17.5067 73.0667L17.0413 71.7675L24.9494 68.935L25.4147 70.2342ZM23.3936 75.6233L22.2074 76.0482L20.6252 71.631L21.8114 71.2061L23.3936 75.6233Z" fill="white"/>
<path d="M20.856 59.4988C20.856 59.7468 20.8 59.9668 20.688 60.1588C20.576 60.3508 20.424 60.5028 20.232 60.6148C20.032 60.7188 19.816 60.7708 19.584 60.7708C19.352 60.7708 19.14 60.7188 18.948 60.6148C18.756 60.5028 18.604 60.3508 18.492 60.1588C18.372 59.9668 18.312 59.7468 18.312 59.4988C18.312 59.2508 18.372 59.0348 18.492 58.8508C18.604 58.6588 18.756 58.5108 18.948 58.4068C19.14 58.2948 19.352 58.2388 19.584 58.2388C19.816 58.2388 20.032 58.2948 20.232 58.4068C20.424 58.5108 20.576 58.6588 20.688 58.8508C20.8 59.0348 20.856 59.2508 20.856 59.4988Z" fill="white"/>
<path d="M26.2643 47.7485C26.068 48.2901 25.7774 48.7634 25.3923 49.1684C25.0073 49.5734 24.5651 49.8897 24.0657 50.1171C23.5588 50.3418 23.0227 50.4709 22.4575 50.5043C21.8875 50.5275 21.3204 50.4369 20.7564 50.2324C20.1923 50.028 19.7026 49.7356 19.2873 49.3554C18.8747 48.9676 18.5496 48.5264 18.3119 48.0318C18.0694 47.527 17.9352 46.9933 17.9093 46.4308C17.8786 45.8581 17.9669 45.2859 18.174 44.7143C18.4003 44.09 18.7305 43.5545 19.1648 43.1077C19.599 42.661 20.1034 42.3375 20.678 42.1373L21.239 43.3362C20.8236 43.4494 20.4585 43.6702 20.1438 43.9986C19.8215 44.3243 19.5786 44.7128 19.4151 45.1641C19.2188 45.7056 19.166 46.2268 19.2568 46.7277C19.3428 47.2184 19.5554 47.6528 19.8949 48.0311C20.2343 48.4094 20.6823 48.6994 21.2388 48.9011C21.7954 49.1029 22.3289 49.1686 22.8394 49.0983C23.3451 49.0178 23.7892 48.8256 24.1716 48.5217C24.554 48.2179 24.8352 47.8177 25.0151 47.3213C25.2059 46.7948 25.2755 46.3095 25.2237 45.8653C25.1672 45.4108 24.9877 45.0139 24.6852 44.6745C24.3753 44.3324 23.942 44.0605 23.3854 43.8588L24.2665 43.2591L23.0439 46.6324L21.8593 46.2031L23.274 42.2996L23.4545 42.365C24.3947 42.7057 25.1156 43.1584 25.6172 43.7232C26.1215 44.2803 26.4229 44.9044 26.5214 45.5953C26.6199 46.2862 26.5342 47.0039 26.2643 47.7485Z" fill="white"/>
<path d="M28.6431 42.0131L21.761 37.1968L22.5523 36.0661L29.4344 40.8825L28.6431 42.0131ZM29.1867 41.2364L28.1543 40.514L30.8515 36.66L31.8838 37.3825L29.1867 41.2364ZM26.1684 39.1241L25.1754 38.4292L27.6386 34.9095L28.6316 35.6044L26.1684 39.1241ZM23.3369 37.1425L22.3046 36.4201L24.9673 32.6153L25.9997 33.3377L23.3369 37.1425Z" fill="white"/>
<path d="M34.9599 34.1051L29.4908 28.0491L30.515 27.1242L35.9841 33.1802L34.9599 34.1051ZM28.144 30.6399L27.2995 29.7048L32.3847 25.1123L33.2292 26.0475L28.144 30.6399Z" fill="white"/>
<path d="M43.7983 27.8197L40.2684 20.1973L41.5207 19.6174L45.0506 27.2398L43.7983 27.8197Z" fill="white"/>
<path d="M48.2213 25.7904L46.2716 17.6198L47.2054 17.397L47.9816 18.8402L49.5636 25.4701L48.2213 25.7904ZM53.8824 24.4395L47.4681 19.2218L47.2054 17.397L53.6196 22.6147L53.8824 24.4395ZM53.8824 24.4395L53.1312 23.1013L51.5241 16.3664L52.8664 16.0461L54.8161 24.2167L53.8824 24.4395Z" fill="white"/>
<path d="M63.8862 24.1837L65.0452 16.1064L66.4112 16.3024L65.2522 24.3797L63.8862 24.1837ZM62.1921 16.7275L62.371 15.4802L69.1536 16.4534L68.9746 17.7007L62.1921 16.7275Z" fill="white"/>
<path d="M74.1672 27.0242C73.6163 26.7864 73.1466 26.4616 72.758 26.0498C72.3694 25.638 72.0729 25.1745 71.8684 24.6592C71.667 24.1366 71.5666 23.5922 71.5671 23.026C71.5781 22.4556 71.7026 21.895 71.9404 21.3442C72.1783 20.7933 72.4994 20.322 72.9038 19.9302C73.3156 19.5416 73.7755 19.2435 74.2834 19.0358C74.8019 18.824 75.3389 18.7204 75.8946 18.7251C76.4608 18.7256 77.0193 18.8448 77.5702 19.0826C78.121 19.3205 78.5871 19.6437 78.9683 20.0523C79.3601 20.4567 79.6566 20.9203 79.8579 21.4429C80.0624 21.9582 80.1592 22.501 80.1482 23.0714C80.1477 23.6376 80.0285 24.1961 79.7907 24.7469C79.5528 25.2978 79.2264 25.7712 78.8115 26.1671C78.407 26.5589 77.9472 26.857 77.4319 27.0615C76.9239 27.2691 76.3869 27.3727 75.8207 27.3722C75.2618 27.3749 74.7107 27.2589 74.1672 27.0242ZM74.6684 25.8029C75.1899 26.028 75.696 26.1072 76.1867 26.0402C76.6848 25.9764 77.1328 25.7865 77.5307 25.4703C77.9392 25.15 78.2608 24.7181 78.4954 24.1746C78.6699 23.7706 78.7623 23.3749 78.7728 22.9873C78.7939 22.5955 78.7392 22.2277 78.6088 21.8838C78.4816 21.5326 78.285 21.2212 78.0189 20.9494C77.7602 20.6809 77.4362 20.4625 77.0469 20.2945C76.5328 20.0725 76.0267 19.9934 75.5286 20.0571C75.041 20.1167 74.5946 20.303 74.1893 20.616C73.7914 20.9322 73.4751 21.362 73.2404 21.9055C73.066 22.3094 72.9667 22.711 72.9425 23.1101C72.9288 23.505 72.9835 23.8728 73.1065 24.2135C73.2369 24.5573 73.4335 24.8688 73.6964 25.1479C73.9625 25.4196 74.2865 25.638 74.6684 25.8029Z" fill="white"/>
<path d="M82.9029 32.3791C82.4173 31.9747 82.073 31.5005 81.8701 30.9566C81.6672 30.4128 81.6107 29.8556 81.7007 29.285C81.802 28.7134 82.0549 28.1848 82.4593 27.6992L85.7925 23.6976L86.8529 24.5808L83.5274 28.5732C83.2662 28.8867 83.1029 29.214 83.0375 29.5551C82.9833 29.8952 83.0161 30.2245 83.136 30.543C83.2611 30.8554 83.465 31.1294 83.7477 31.3649C84.0366 31.6055 84.3429 31.7566 84.6666 31.8179C84.9954 31.8732 85.3191 31.8408 85.6376 31.7209C85.9613 31.5949 86.2511 31.3782 86.5071 31.0708L89.8403 27.0692L90.9006 27.9524L87.5598 31.9633C87.1553 32.4489 86.6837 32.7901 86.1449 32.9868C85.6062 33.1836 85.0541 33.2339 84.4887 33.1378C83.9232 33.0416 83.3947 32.7888 82.9029 32.3791Z" fill="white"/>
<path d="M89.9787 40.2475C89.6283 39.7506 89.3915 39.2275 89.2683 38.678C89.1562 38.1305 89.1497 37.5869 89.2487 37.0472C89.3543 36.5028 89.5596 35.9958 89.8646 35.5261C90.1762 35.0518 90.5772 34.6417 91.0675 34.2959C91.5578 33.9501 92.0754 33.7123 92.6202 33.5826C93.1716 33.4482 93.7181 33.425 94.2597 33.5129C94.8014 33.6007 95.3113 33.7893 95.7895 34.0786C96.2722 34.3745 96.6888 34.7708 97.0393 35.2676C97.4312 35.8233 97.6786 36.3684 97.7814 36.9028C97.8842 37.4373 97.8894 37.972 97.7969 38.5072L96.4925 38.2818C96.5719 37.9223 96.5699 37.5517 96.4866 37.1699C96.408 36.7947 96.2326 36.4142 95.9606 36.0284C95.7208 35.6885 95.4429 35.4195 95.127 35.2213C94.811 35.0232 94.4682 34.898 94.0983 34.8455C93.7397 34.795 93.3708 34.8203 92.9917 34.9212C92.6125 35.0222 92.2432 35.1995 91.8836 35.4531C91.5241 35.7067 91.2331 35.9951 91.0108 36.3183C90.7884 36.6416 90.6376 36.9829 90.5583 37.3423C90.4901 37.7037 90.4963 38.0664 90.5769 38.4306C90.6575 38.7947 90.8176 39.1467 91.0574 39.4867C91.3525 39.9051 91.6636 40.2143 91.9907 40.4143C92.329 40.6163 92.6807 40.7402 93.0459 40.7861L92.8205 42.0905C92.2788 42.0026 91.7666 41.8108 91.2838 41.5149C90.8011 41.2191 90.366 40.7966 89.9787 40.2475Z" fill="white"/>
<path d="M92.6463 44.4305L100.533 41.5387L101.008 42.8343L93.1214 45.7262L92.6463 44.4305ZM94.4847 49.4441L102.371 46.5523L102.846 47.8479L94.9598 50.7398L94.4847 49.4441ZM96.4653 44.0399L97.6482 43.6061L99.2635 48.0113L98.0806 48.4451L96.4653 44.0399Z" fill="white"/>
<path d="M99.1467 59.8821C99.1429 59.6341 99.1955 59.4133 99.3045 59.2196C99.4135 59.0259 99.5631 58.8715 99.7534 58.7566C99.9517 58.6495 100.167 58.5942 100.399 58.5906C100.631 58.587 100.844 58.6357 101.037 58.7368C101.231 58.8458 101.385 58.9954 101.5 59.1857C101.623 59.3758 101.687 59.5948 101.69 59.8428C101.694 60.0908 101.638 60.3077 101.52 60.4935C101.411 60.6872 101.262 60.8376 101.071 60.9445C100.881 61.0595 100.67 61.1187 100.438 61.1223C100.206 61.1259 99.9892 61.0732 99.7875 60.9643C99.5939 60.8633 99.4396 60.7177 99.3247 60.5274C99.2098 60.3452 99.1505 60.1301 99.1467 59.8821Z" fill="white"/>
</svg>
