<svg width="40" height="40" viewBox="0 0 40 40" fill="none" xmlns="http://www.w3.org/2000/svg">
<g clip-path="url(#clip0_1_489)">
<path d="M30 20C30 14.4766 25.5234 10 20 10C14.4766 10 10 14.4766 10 20C10 24.9922 13.6562 29.1289 18.4375 29.8789V22.8906H15.8984V20H18.4375V17.7969C18.4375 15.291 19.9297 13.9062 22.2148 13.9062C23.3086 13.9062 24.4531 14.1016 24.4531 14.1016V16.5625H23.1914C21.9492 16.5625 21.5625 17.334 21.5625 18.125V20H24.3359L23.8926 22.8906H21.5625V29.8789C26.3438 29.1289 30 24.9922 30 20Z" fill="#996830"/>
</g>
<circle cx="20" cy="20" r="19.5" stroke="#E6D8CC"/>
<defs>
<clipPath id="clip0_1_489">
<rect width="20" height="20" fill="white" transform="translate(10 10)"/>
</clipPath>
</defs>
</svg>
