<svg width="80" height="80" viewBox="0 0 80 80" fill="none" xmlns="http://www.w3.org/2000/svg">
<g clip-path="url(#clip0_167_40)">
<path d="M28.6054 70.3874C28.1448 70.0274 27.6327 69.7384 27.0862 69.5301C26.5748 69.3504 26.0389 69.2495 25.497 69.231C24.323 69.2178 23.1526 69.3653 22.0188 69.6698C20.8594 69.9587 19.75 70.2972 18.9305 70.5766C18.1109 70.8554 17.5711 71.065 17.5711 71.065C17.5711 71.065 18.1009 71.3641 18.9405 71.7229C19.9917 72.1778 21.0916 72.5122 22.2187 72.7193C23.4926 72.9689 24.8059 72.9384 26.0667 72.6298C26.6478 72.5056 27.1868 72.2339 27.6316 71.8411C28.0765 71.4483 28.4119 70.9474 28.6054 70.3874Z" fill="#C4A386"/>
<path d="M25.0667 65.2644C25.498 66.2996 26.1859 67.2082 27.0657 67.9056C27.4827 68.2291 27.968 68.4542 28.485 68.5635C29.0178 68.6721 29.571 68.6202 30.0741 68.4136C30.1088 67.3575 29.8232 66.3157 29.2545 65.4244C28.7115 64.5963 28.0363 63.862 27.2556 63.2518C26.5774 62.7074 25.8664 62.2047 25.1267 61.7468C24.537 61.3778 24.1272 61.1688 24.1272 61.1688C24.1272 61.1688 24.1272 61.2984 24.1272 61.5277C24.1272 61.7569 24.1872 62.0656 24.2571 62.4644C24.4115 63.4274 24.6834 64.3677 25.0667 65.2644Z" fill="#C4A386"/>
<path d="M16.7309 67.9557C17.2957 67.9492 17.8515 67.8136 18.3557 67.5599C18.8599 67.3056 19.299 66.9402 19.6394 66.4907C19.3736 66.0214 19.0151 65.6106 18.5856 65.2835C18.1561 64.9563 17.6646 64.7193 17.1407 64.5868C16.0096 64.2853 14.8434 64.1342 13.6725 64.1384C12.4831 64.1384 11.2937 64.1384 10.4043 64.1384H8.915C8.915 64.1384 9.02497 64.268 9.22485 64.4674C9.42473 64.6668 9.73458 64.936 10.1144 65.2447C11.0284 65.9957 12.0363 66.6256 13.1128 67.1181C14.2376 67.6727 15.4761 67.9593 16.7309 67.9557Z" fill="#C4A386"/>
<path d="M18.9902 63.4011C19.3001 63.8262 19.7104 64.1688 20.1845 64.3981C20.6587 64.628 21.1822 64.7372 21.7088 64.7169C22.1247 63.7157 22.1497 62.5957 21.7788 61.5778C21.4238 60.6423 20.9247 59.7683 20.2995 58.9868C19.7299 58.2094 19.1502 57.5414 18.7304 57.0733C18.5205 56.8238 18.3406 56.6345 18.2206 56.505L18.0308 56.3056C18.0308 56.3056 18.0308 56.4256 17.9308 56.6345C17.8554 56.9336 17.7954 57.2363 17.7509 57.5414C17.6037 58.496 17.6037 59.4674 17.7509 60.4214C17.9075 61.5026 18.3336 62.5271 18.9902 63.4011Z" fill="#C4A386"/>
<path d="M4.73732 55.0998C3.91774 54.8407 3.37803 54.6912 3.37803 54.6912C3.37803 54.6912 3.428 54.8307 3.53798 55.0599C3.64789 55.2891 3.81779 55.5981 4.02771 55.9768C4.23756 56.3557 4.49744 56.7939 4.79732 57.2524C4.94723 57.4817 5.10711 57.7109 5.27702 57.9497L5.40699 58.1294L5.5769 58.3485L5.92669 58.7874C6.7901 59.8721 7.93887 60.6972 9.24496 61.1688C9.78586 61.3677 10.3679 61.4291 10.9386 61.3474C11.5093 61.2656 12.0505 61.0435 12.5133 60.7008C12.2464 59.6357 11.6043 58.702 10.7042 58.0697C10.4943 57.9002 10.2545 57.7408 10.0146 57.5712L9.25499 57.093L8.44538 56.6244C8.19553 56.4853 7.93565 56.3557 7.67577 56.2357C6.72293 55.792 5.74126 55.4124 4.73732 55.0998Z" fill="#C4A386"/>
<path d="M12.7937 57.1527C12.9295 57.6566 13.1987 58.1151 13.5733 58.4799C13.9478 58.8446 14.4139 59.102 14.9226 59.2255C15.5822 58.3909 15.9569 57.3676 15.992 56.3055C16.0184 55.4214 15.9582 54.5369 15.8121 53.6646C15.7519 53.223 15.6584 52.7865 15.5323 52.359C15.4023 51.9205 15.2724 51.5219 15.1425 51.1931C15.0125 50.8642 14.9026 50.5851 14.8227 50.3957L14.7127 50.0968L14.5028 50.3957C14.3729 50.5951 14.2129 50.8741 14.033 51.2229C13.5686 52.1094 13.1968 53.0411 12.9236 54.0034C12.8536 54.2725 12.7837 54.5515 12.7237 54.8305C12.6717 55.0939 12.635 55.3602 12.6138 55.6278C12.5888 55.893 12.5888 56.1599 12.6138 56.4249C12.6507 56.6727 12.7109 56.9163 12.7937 57.1527Z" fill="#C4A386"/>
<path d="M3.47791 51.0134C3.67343 51.2398 3.8874 51.4499 4.11761 51.6412C4.33403 51.828 4.5646 51.9979 4.80722 52.1495C5.26048 52.4795 5.78274 52.7029 6.33492 52.8031C6.8871 52.9032 7.45481 52.8773 7.99558 52.7275C8.09021 52.1957 8.05594 51.6489 7.89564 51.133C7.82155 50.8886 7.71749 50.6543 7.58579 50.4354C7.45546 50.208 7.31194 49.9884 7.156 49.7776C6.43964 48.88 5.57421 48.1114 4.59731 47.5054C3.73713 46.9 2.8428 46.3443 1.91874 45.8411L0.659399 45.1634C0.659399 45.1634 0.659398 45.3129 0.739339 45.562C0.819339 45.8112 0.909249 46.16 1.05916 46.5586C1.38017 47.6082 1.83355 48.6128 2.40847 49.5484C2.728 50.0625 3.08549 50.5522 3.47791 51.0134Z" fill="#C4A386"/>
<path d="M9.73477 50.595C9.95906 51.0673 10.3037 51.4728 10.7342 51.771C11.6947 51.2343 12.4106 50.3491 12.7332 49.2995C12.8129 49.0547 12.8763 48.805 12.9231 48.552L12.9831 48.1733C12.9831 48.0537 12.9831 47.9242 13.043 47.7946C13.1026 47.2853 13.1226 46.7722 13.103 46.2599C13.0696 45.3921 12.9861 44.527 12.8531 43.6688C12.7932 43.3299 12.7332 43.0509 12.6932 42.8615C12.6532 42.6722 12.6332 42.5626 12.6332 42.5626L12.3834 42.8117C12.1607 43.0325 11.9505 43.2654 11.7537 43.5093C11.1336 44.2667 10.5975 45.0886 10.1545 45.9609C9.66647 46.9441 9.4036 48.0232 9.38492 49.1201C9.38736 49.3789 9.42092 49.6365 9.48486 49.8874C9.54133 50.1319 9.62515 50.3692 9.73477 50.595Z" fill="#C4A386"/>
<path d="M1.45922 41.546C1.59916 41.8106 1.75958 42.0638 1.93899 42.3034C2.11982 42.5362 2.31684 42.756 2.52866 42.9612C2.91123 43.3629 3.37899 43.6743 3.89779 43.8726C4.4166 44.0709 4.97326 44.1511 5.52711 44.1072C5.72544 43.6075 5.79756 43.0668 5.73702 42.5327C5.70639 42.2783 5.6495 42.0278 5.56711 41.7852C5.50305 41.5333 5.41947 41.2868 5.3172 41.0477C5.07648 40.5433 4.77797 40.0685 4.4277 39.6326L3.88794 38.9549C3.70806 38.7257 3.50818 38.5065 3.31827 38.2872C2.52866 37.4302 1.66913 36.6329 1.05946 36.0449C0.449791 35.4569 0 35.0682 0 35.0682C0 35.0682 0 35.6662 0 36.5631C0.0466269 37.0782 0.12 37.5904 0.21988 38.0979C0.27988 38.3769 0.339821 38.6659 0.409791 38.9549C0.474507 39.2522 0.557971 39.5451 0.659642 39.8319C0.88621 40.421 1.15337 40.9937 1.45922 41.546Z" fill="#C4A386"/>
<path d="M8.40569 43.4595C9.42946 43.1171 10.2883 42.4065 10.8145 41.4663C10.9424 41.2496 11.0526 41.0229 11.1443 40.7886C11.2587 40.5591 11.3588 40.3228 11.4441 40.0811C11.6015 39.6162 11.7218 39.1396 11.804 38.6559C11.8939 38.1875 11.9938 37.7291 12.0438 37.3106C12.0438 37.0913 12.0438 36.892 12.1038 36.7026C12.1637 36.5133 12.1038 36.3339 12.1038 36.1645C12.1588 35.8014 12.1922 35.4353 12.2037 35.0682C12.2037 35.0682 11.764 35.3174 11.1343 35.7659L10.6246 36.1445C10.4447 36.294 10.2647 36.4435 10.0849 36.613C9.69453 36.9613 9.33041 37.3376 8.99543 37.7391C8.82552 37.9484 8.65561 38.1676 8.49567 38.3968L8.27579 38.7456L8.08587 39.1144C7.84778 39.5913 7.67304 40.0972 7.56617 40.6192C7.51047 40.8712 7.48366 41.1286 7.48617 41.3866C7.50098 41.6358 7.54116 41.8829 7.60611 42.1241C7.74981 42.6317 8.02569 43.0924 8.40569 43.4595Z" fill="#C4A386"/>
<path d="M4.24827 29.0888C3.97841 28.5706 3.68856 28.0922 3.40874 27.6039L2.63913 26.3581C2.18934 25.6306 1.85955 25.1623 1.85955 25.1623C1.85955 25.1623 1.68964 25.7303 1.5097 26.6073C1.44976 27.0557 1.37979 27.6039 1.33979 28.152C1.33979 28.431 1.33979 28.73 1.33979 29.029C1.33979 29.3279 1.33979 29.6369 1.33979 29.9458C1.3885 30.5643 1.4888 31.1777 1.63967 31.7796C1.79692 32.3568 2.03227 32.91 2.33931 33.4239C2.61525 33.904 2.99877 34.3139 3.46003 34.6217C3.92122 34.9294 4.44755 35.1266 4.99788 35.1978C5.14755 34.9711 5.26844 34.7267 5.3577 34.4703C5.45215 34.2294 5.51919 33.9787 5.55758 33.7229C5.6343 33.2116 5.61053 32.6904 5.48767 32.1882C5.37322 31.6494 5.20928 31.1223 4.99788 30.6135C4.778 30.0854 4.50815 29.5472 4.24827 29.0888Z" fill="#C4A386"/>
<path d="M10.7148 33.5933C11.0684 33.2477 11.3773 32.8593 11.6343 32.4373C11.915 32.0415 12.1592 31.6212 12.3639 31.1816C12.4739 30.9723 12.5538 30.763 12.6537 30.5637L12.9136 29.9658C13.0736 29.5771 13.1935 29.2183 13.3034 28.9093C13.5333 28.3015 13.6432 27.9128 13.6432 27.9128C13.2268 28.0203 12.8164 28.15 12.4139 28.3015C11.5141 28.6386 10.6637 29.0945 9.88521 29.6568C9.65781 29.812 9.44079 29.9817 9.23554 30.165C9.03572 30.3477 8.84557 30.5406 8.66587 30.7431C8.30718 31.1438 8.00766 31.5935 7.77631 32.0785C7.57166 32.5364 7.4661 33.0322 7.46646 33.5335C7.45966 33.7831 7.49339 34.0322 7.5664 34.271C7.64861 34.5267 7.76282 34.7711 7.90622 34.9985C8.97864 34.8727 9.97267 34.3754 10.7148 33.5933Z" fill="#C4A386"/>
<path d="M7.20594 25.8799C7.362 25.677 7.49292 25.4562 7.59579 25.2221C7.69448 24.9914 7.76821 24.7509 7.81567 24.5046C7.81567 24.2554 7.88558 23.9963 7.91561 23.7372C7.94791 23.1941 7.9177 22.649 7.82564 22.1127C7.74952 21.5387 7.63937 20.9696 7.49579 20.4086C7.20594 19.2725 6.89615 18.2062 6.6063 17.4188C6.31644 16.6316 6.1365 16.0336 6.1365 16.0336C6.1365 16.0336 6.05657 16.1632 5.93663 16.3824C5.81669 16.6016 5.65674 16.9405 5.46689 17.379C5.0143 18.3803 4.67895 19.4304 4.46737 20.5083C4.36815 21.1048 4.31137 21.7076 4.29746 22.3121C4.30092 22.6123 4.32427 22.9119 4.36743 23.209C4.4143 23.4948 4.4777 23.7776 4.55734 24.0561C4.70253 24.587 4.96176 25.08 5.31692 25.5012C5.68027 25.9404 6.14737 26.2829 6.67627 26.4977C6.88021 26.3167 7.05842 26.1089 7.20594 25.8799Z" fill="#C4A386"/>
<path d="M16.6815 21.5547C16.7914 21.3952 16.8414 21.3056 16.8414 21.3056H16.4916C16.2517 21.3056 15.9418 21.3056 15.5621 21.3853C15.1822 21.465 14.7325 21.5049 14.2527 21.6145C14.0129 21.6644 13.763 21.7341 13.5131 21.8038C13.2633 21.8736 13.0234 21.9733 12.7735 22.073C12.2622 22.2663 11.773 22.5136 11.3142 22.8104C10.8762 23.0898 10.4763 23.4248 10.1249 23.807C9.9632 23.9989 9.82558 24.2097 9.71508 24.4348C9.60678 24.6553 9.51979 24.8856 9.45526 25.1225C9.38702 25.3623 9.3534 25.6106 9.35525 25.86C9.3771 26.1269 9.42737 26.3909 9.50523 26.6472C10.0498 26.7529 10.6098 26.7529 11.1544 26.6472C11.6514 26.5336 12.1295 26.349 12.5736 26.0991C12.7835 25.9696 12.9934 25.84 13.1933 25.6905L13.4731 25.4613L13.763 25.2222C14.1242 24.9192 14.4586 24.5857 14.7625 24.2256C15.0625 23.9108 15.3429 23.578 15.602 23.229L15.7819 22.9699L15.9519 22.7407C16.0718 22.5812 16.1717 22.4317 16.2616 22.3022C16.3516 22.1726 16.5915 21.7241 16.6815 21.5547Z" fill="#C4A386"/>
<path d="M10.4645 18.5449C10.9368 18.3149 11.3453 17.9727 11.6539 17.5483C11.9632 17.1442 12.1906 16.6838 12.3235 16.193C12.8673 14.0996 12.7234 11.8752 12.5334 9.7451C12.4434 8.91793 12.3535 8.35984 12.3535 8.35984C11.9491 8.67347 11.643 9.03753 11.344 9.45608C11.041 9.8519 10.7607 10.2644 10.5044 10.6918C10.206 11.1897 9.93894 11.7056 9.70485 12.2366C9.4673 12.7911 9.27673 13.3644 9.13518 13.9507C9.01667 14.5207 8.96963 15.1032 8.99524 15.6847C9.00921 16.2409 9.14855 16.7867 9.40288 17.2818C9.65721 17.7769 10.0201 18.2086 10.4645 18.5449Z" fill="#C4A386"/>
<path d="M18.8598 17.9468C19.2496 17.6578 19.6095 17.3787 19.9293 17.0997C20.2491 16.8206 20.549 16.5516 20.7788 16.3224C21.0087 16.0932 21.2186 15.8938 21.3486 15.7543L21.5584 15.5351C21.1355 15.45 20.7086 15.3868 20.2791 15.3457C19.8506 15.304 19.4201 15.2873 18.9897 15.2959C18.4676 15.2922 17.946 15.3323 17.4306 15.4155C16.3537 15.5402 15.324 15.927 14.4321 16.5416C14.0289 16.8449 13.6893 17.2241 13.4327 17.6578C13.2065 18.112 13.0998 18.6162 13.1228 19.1228C14.1092 19.5482 15.2164 19.6048 16.2412 19.2822C16.7218 19.1433 17.1846 18.9493 17.6205 18.7042C18.0521 18.4832 18.4665 18.23 18.8598 17.9468Z" fill="#C4A386"/>
<path d="M15.6685 13.4065C16.2565 13.4065 17.1741 13.4603 17.9207 12.9442C18.1232 12.7962 18.3167 12.6365 18.5003 12.4659C18.6926 12.2957 18.873 12.1125 19.0401 11.9177C19.401 11.529 19.735 11.1161 20.0396 10.682C20.6193 9.82496 21.119 8.93797 21.4788 8.27027C21.6587 7.94138 21.7844 7.65253 21.8843 7.45324L21.952 7.283L21.9885 7.16406L21.5229 7.19671C21.2129 7.23755 21.0317 7.26478 20.7292 7.34347C19.7743 7.58514 18.8541 7.94681 17.9906 8.41976C16.9931 8.93445 16.1305 9.67511 15.472 10.5823C15.1664 11.0134 14.9615 11.5071 14.8723 12.0274C14.7728 12.4636 14.7756 12.9015 14.8723 13.3528" fill="#C4A386"/>
<path d="M51.3946 70.3874C51.8553 70.0274 52.3673 69.7384 52.9138 69.5301C53.4252 69.3504 53.9611 69.2495 54.503 69.231C55.6771 69.2178 56.8474 69.3653 57.9812 69.6698C59.1406 69.9587 60.25 70.2972 61.0695 70.5766C61.8891 70.8554 62.4289 71.065 62.4289 71.065C62.4289 71.065 61.8992 71.3641 61.0596 71.7229C60.0083 72.1778 58.9085 72.5122 57.7813 72.7193C56.5074 72.9689 55.1941 72.9384 53.9333 72.6298C53.3522 72.5056 52.8132 72.2339 52.3684 71.8411C51.9236 71.4483 51.5882 70.9474 51.3946 70.3874Z" fill="#C4A386"/>
<path d="M54.9333 65.2644C54.502 66.2996 53.8142 67.2082 52.9344 67.9056C52.5173 68.2291 52.032 68.4542 51.5151 68.5635C50.9822 68.6721 50.429 68.6202 49.9259 68.4136C49.8912 67.3575 50.1769 66.3157 50.7455 65.4244C51.2885 64.5963 51.9637 63.862 52.7444 63.2518C53.4227 62.7074 54.1336 62.2047 54.8733 61.7468C55.463 61.3778 55.8728 61.1688 55.8728 61.1688C55.8728 61.1688 55.8728 61.2984 55.8728 61.5277C55.8728 61.7569 55.8129 62.0656 55.7429 62.4644C55.5885 63.4274 55.3166 64.3677 54.9333 65.2644Z" fill="#C4A386"/>
<path d="M63.2691 67.9557C62.7043 67.9492 62.1485 67.8136 61.6443 67.5599C61.1401 67.3056 60.701 66.9402 60.3606 66.4907C60.6265 66.0214 60.985 65.6106 61.4144 65.2835C61.8439 64.9563 62.3354 64.7193 62.8593 64.5868C63.9904 64.2853 65.1566 64.1342 66.3275 64.1384C67.5169 64.1384 68.7063 64.1384 69.5958 64.1384H71.085C71.085 64.1384 70.9751 64.268 70.7752 64.4674C70.5753 64.6668 70.2654 64.936 69.8856 65.2447C68.9716 65.9957 67.9637 66.6256 66.8872 67.1181C65.7624 67.6727 64.5239 67.9593 63.2691 67.9557Z" fill="#C4A386"/>
<path d="M61.0098 63.4011C60.6999 63.8262 60.2897 64.1688 59.8155 64.3981C59.3414 64.628 58.8179 64.7372 58.2912 64.7169C57.8753 63.7157 57.8503 62.5957 58.2213 61.5778C58.5762 60.6423 59.0753 59.7683 59.7005 58.9868C60.2702 58.2094 60.8499 57.5414 61.2696 57.0733C61.4795 56.8238 61.6595 56.6345 61.7794 56.505L61.9693 56.3056C61.9693 56.3056 61.9693 56.4256 62.0692 56.6345C62.1446 56.9336 62.2047 57.2363 62.2491 57.5414C62.3963 58.496 62.3963 59.4674 62.2491 60.4214C62.0925 61.5026 61.6664 62.5271 61.0098 63.4011Z" fill="#C4A386"/>
<path d="M75.2627 55.0998C76.0823 54.8407 76.622 54.6912 76.622 54.6912C76.622 54.6912 76.572 54.8307 76.4621 55.0599C76.3521 55.2891 76.1822 55.5981 75.9723 55.9768C75.7625 56.3557 75.5026 56.7939 75.2027 57.2524C75.0528 57.4817 74.8929 57.7109 74.723 57.9497L74.593 58.1294L74.4231 58.3485L74.0733 58.7874C73.2099 59.8721 72.0612 60.6972 70.7551 61.1688C70.2142 61.3677 69.6321 61.4291 69.0615 61.3474C68.4908 61.2656 67.9496 61.0435 67.4868 60.7008C67.7536 59.6357 68.3957 58.702 69.2958 58.0697C69.5057 57.9002 69.7456 57.7408 69.9855 57.5712L70.745 57.093L71.5547 56.6244C71.8045 56.4853 72.0644 56.3557 72.3243 56.2357C73.2771 55.792 74.2588 55.4124 75.2627 55.0998Z" fill="#C4A386"/>
<path d="M67.2063 57.1527C67.0706 57.6566 66.8013 58.1151 66.4268 58.4799C66.0522 58.8446 65.5862 59.102 65.0774 59.2255C64.4178 58.3909 64.0431 57.3676 64.008 56.3055C63.9816 55.4214 64.0419 54.5369 64.1879 53.6646C64.2481 53.223 64.3417 52.7865 64.4678 52.359C64.5977 51.9205 64.7276 51.5219 64.8576 51.1931C64.9875 50.8642 65.0974 50.5851 65.1774 50.3957L65.2873 50.0968L65.4973 50.3957C65.6272 50.5951 65.7871 50.8741 65.967 51.2229C66.4315 52.1094 66.8032 53.0411 67.0764 54.0034C67.1464 54.2725 67.2164 54.5515 67.2763 54.8305C67.3283 55.0939 67.365 55.3602 67.3863 55.6278C67.4112 55.893 67.4112 56.1599 67.3863 56.4249C67.3493 56.6727 67.2891 56.9163 67.2063 57.1527Z" fill="#C4A386"/>
<path d="M76.5221 51.0134C76.3266 51.2398 76.1126 51.4499 75.8824 51.6412C75.666 51.828 75.4354 51.9979 75.1928 52.1495C74.7396 52.4795 74.2173 52.7029 73.6651 52.8031C73.1129 52.9032 72.5452 52.8773 72.0045 52.7275C71.9098 52.1957 71.9441 51.6489 72.1044 51.133C72.1785 50.8886 72.2825 50.6543 72.4142 50.4354C72.5446 50.208 72.6881 49.9884 72.844 49.7776C73.5604 48.88 74.4258 48.1114 75.4027 47.5054C76.2629 46.9 77.1572 46.3443 78.0813 45.8411L79.3406 45.1634C79.3406 45.1634 79.3406 45.3129 79.2607 45.562C79.1807 45.8112 79.0908 46.16 78.9409 46.5586C78.6199 47.6082 78.1665 48.6128 77.5916 49.5484C77.272 50.0625 76.9145 50.5522 76.5221 51.0134Z" fill="#C4A386"/>
<path d="M70.2653 50.595C70.041 51.0673 69.6963 51.4728 69.2658 51.771C68.3053 51.2343 67.5894 50.3491 67.2669 49.2995C67.1872 49.0547 67.1237 48.805 67.077 48.552L67.017 48.1733C67.017 48.0537 67.017 47.9242 66.957 47.7946C66.8974 47.2853 66.8774 46.7722 66.897 46.2599C66.9305 45.3921 67.0139 44.527 67.1469 43.6688C67.2069 43.3299 67.2669 43.0509 67.3068 42.8615C67.3468 42.6722 67.3668 42.5626 67.3668 42.5626L67.6167 42.8117C67.8393 43.0325 68.0495 43.2654 68.2463 43.5093C68.8664 44.2667 69.4026 45.0886 69.8455 45.9609C70.3336 46.9441 70.5964 48.0232 70.6151 49.1201C70.6127 49.3789 70.5791 49.6365 70.5152 49.8874C70.4587 50.1319 70.3749 50.3692 70.2653 50.595Z" fill="#C4A386"/>
<path d="M78.5408 41.546C78.4009 41.8106 78.2405 42.0638 78.0611 42.3034C77.8802 42.5362 77.6832 42.756 77.4714 42.9612C77.0888 43.3629 76.621 43.6743 76.1022 43.8726C75.5834 44.0709 75.0268 44.1511 74.4729 44.1072C74.2746 43.6075 74.2025 43.0668 74.263 42.5327C74.2936 42.2783 74.3505 42.0278 74.4329 41.7852C74.497 41.5333 74.5806 41.2868 74.6828 41.0477C74.9236 40.5433 75.2221 40.0685 75.5723 39.6326L76.1121 38.9549C76.292 38.7257 76.4919 38.5065 76.6818 38.2872C77.4714 37.4302 78.3309 36.6329 78.9406 36.0449C79.5502 35.4569 80 35.0682 80 35.0682C80 35.0682 80 35.6662 80 36.5631C79.9534 37.0782 79.88 37.5904 79.7802 38.0979C79.7202 38.3769 79.6602 38.6659 79.5902 38.9549C79.5255 39.2522 79.4421 39.5451 79.3404 39.8319C79.1138 40.421 78.8467 40.9937 78.5408 41.546Z" fill="#C4A386"/>
<path d="M71.5943 43.4595C70.5706 43.1171 69.7117 42.4065 69.1856 41.4663C69.0577 41.2496 68.9474 41.0229 68.8558 40.7886C68.7414 40.5591 68.6413 40.3228 68.5559 40.0811C68.3986 39.6162 68.2783 39.1396 68.1961 38.6559C68.1062 38.1875 68.0062 37.7291 67.9562 37.3106C67.9562 37.0913 67.9562 36.892 67.8962 36.7026C67.8363 36.5133 67.8962 36.3339 67.8962 36.1645C67.8412 35.8014 67.8078 35.4353 67.7963 35.0682C67.7963 35.0682 68.2361 35.3174 68.8657 35.7659L69.3755 36.1445C69.5554 36.294 69.7353 36.4435 69.9152 36.613C70.3055 36.9613 70.6696 37.3376 71.0046 37.7391C71.1745 37.9484 71.3444 38.1676 71.5044 38.3968L71.7242 38.7456L71.9142 39.1144C72.1522 39.5913 72.327 40.0972 72.4339 40.6192C72.4896 40.8712 72.5164 41.1286 72.5139 41.3866C72.4991 41.6358 72.4589 41.8829 72.3939 42.1241C72.2502 42.6317 71.9743 43.0924 71.5943 43.4595Z" fill="#C4A386"/>
<path d="M75.7518 29.0888C76.0216 28.5706 76.3115 28.0922 76.5913 27.6039L77.3609 26.3581C77.8107 25.6306 78.1405 25.1623 78.1405 25.1623C78.1405 25.1623 78.3104 25.7303 78.4903 26.6073C78.5503 27.0557 78.6202 27.6039 78.6602 28.152C78.6602 28.431 78.6602 28.73 78.6602 29.029C78.6602 29.3279 78.6602 29.6369 78.6602 29.9458C78.6115 30.5643 78.5112 31.1777 78.3604 31.7796C78.2031 32.3568 77.9678 32.91 77.6607 33.4239C77.3848 33.904 77.0013 34.3139 76.54 34.6217C76.0788 34.9294 75.5525 35.1266 75.0022 35.1978C74.8525 34.9711 74.7316 34.7267 74.6423 34.4703C74.5479 34.2294 74.4808 33.9787 74.4425 33.7229C74.3657 33.2116 74.3895 32.6904 74.5124 32.1882C74.6268 31.6494 74.7908 31.1223 75.0022 30.6135C75.222 30.0854 75.4919 29.5472 75.7518 29.0888Z" fill="#C4A386"/>
<path d="M69.2853 33.5933C68.9316 33.2477 68.6227 32.8593 68.3657 32.4373C68.085 32.0415 67.8408 31.6212 67.6361 31.1816C67.5262 30.9723 67.4462 30.763 67.3463 30.5637L67.0864 29.9658C66.9265 29.5771 66.8065 29.2183 66.6966 28.9093C66.4667 28.3015 66.3568 27.9128 66.3568 27.9128C66.7733 28.0203 67.1837 28.15 67.5862 28.3015C68.4859 28.6386 69.3364 29.0945 70.1148 29.6568C70.3422 29.812 70.5592 29.9817 70.7645 30.165C70.9643 30.3477 71.1545 30.5406 71.3342 30.7431C71.6929 31.1438 71.9924 31.5935 72.2237 32.0785C72.4284 32.5364 72.5339 33.0322 72.5336 33.5335C72.5404 33.7831 72.5066 34.0322 72.4336 34.271C72.3514 34.5267 72.2372 34.7711 72.0938 34.9985C71.0214 34.8727 70.0274 34.3754 69.2853 33.5933Z" fill="#C4A386"/>
<path d="M72.7941 25.8799C72.638 25.677 72.5071 25.4562 72.4042 25.2221C72.3056 24.9914 72.2318 24.7509 72.1844 24.5046C72.1844 24.2554 72.1145 23.9963 72.0844 23.7372C72.0521 23.1941 72.0823 22.649 72.1744 22.1127C72.2505 21.5387 72.3607 20.9696 72.5042 20.4086C72.7941 19.2725 73.1039 18.2062 73.3937 17.4188C73.6836 16.6316 73.8635 16.0336 73.8635 16.0336C73.8635 16.0336 73.9435 16.1632 74.0634 16.3824C74.1833 16.6016 74.3433 16.9405 74.5331 17.379C74.9857 18.3803 75.3211 19.4304 75.5327 20.5083C75.6319 21.1048 75.6887 21.7076 75.7026 22.3121C75.6991 22.6123 75.6758 22.9119 75.6326 23.209C75.5857 23.4948 75.5223 23.7776 75.4427 24.0561C75.2975 24.587 75.0383 25.08 74.6831 25.5012C74.3198 25.9404 73.8527 26.2829 73.3238 26.4977C73.1198 26.3167 72.9416 26.1089 72.7941 25.8799Z" fill="#C4A386"/>
<path d="M63.3186 21.5547C63.2087 21.3952 63.1587 21.3056 63.1587 21.3056H63.5085C63.7484 21.3056 64.0582 21.3056 64.438 21.3853C64.8178 21.465 65.2676 21.5049 65.7473 21.6145C65.9872 21.6644 66.2371 21.7341 66.4869 21.8038C66.7368 21.8736 66.9767 21.9733 67.2265 22.073C67.7379 22.2663 68.227 22.5136 68.6858 22.8104C69.1239 23.0898 69.5237 23.4248 69.8752 23.807C70.0368 23.9989 70.1744 24.2097 70.285 24.4348C70.3933 24.6553 70.4802 24.8856 70.5448 25.1225C70.613 25.3623 70.6466 25.6106 70.6448 25.86C70.6229 26.1269 70.5727 26.3909 70.4948 26.6472C69.9502 26.7529 69.3903 26.7529 68.8457 26.6472C68.3486 26.5336 67.8706 26.349 67.4264 26.0991C67.2165 25.9696 67.0066 25.84 66.8067 25.6905L66.5269 25.4613L66.2371 25.2222C65.8758 24.9192 65.5414 24.5857 65.2375 24.2256C64.9375 23.9108 64.6571 23.578 64.398 23.229L64.2181 22.9699L64.0482 22.7407C63.9282 22.5812 63.8283 22.4317 63.7384 22.3022C63.6484 22.1726 63.4085 21.7241 63.3186 21.5547Z" fill="#C4A386"/>
<path d="M69.5355 18.5449C69.0632 18.3149 68.6548 17.9727 68.3462 17.5483C68.0369 17.1442 67.8094 16.6838 67.6766 16.193C67.1328 14.0996 67.2767 11.8752 67.4666 9.7451C67.5566 8.91793 67.6465 8.35984 67.6465 8.35984C68.0509 8.67347 68.357 9.03753 68.656 9.45608C68.9591 9.8519 69.2394 10.2644 69.4956 10.6918C69.7941 11.1897 70.0611 11.7056 70.2952 12.2366C70.5327 12.7911 70.7233 13.3644 70.8649 13.9507C70.9834 14.5207 71.0304 15.1032 71.0048 15.6847C70.9908 16.2409 70.8515 16.7867 70.5972 17.2818C70.3428 17.7769 69.98 18.2086 69.5355 18.5449Z" fill="#C4A386"/>
<path d="M61.1402 17.9468C60.7504 17.6578 60.3906 17.3787 60.0708 17.0997C59.7509 16.8206 59.4511 16.5516 59.2212 16.3224C58.9913 16.0932 58.7814 15.8938 58.6515 15.7543L58.4416 15.5351C58.8645 15.45 59.2915 15.3868 59.7209 15.3457C60.1494 15.304 60.5799 15.2873 61.0103 15.2959C61.5324 15.2922 62.054 15.3323 62.5694 15.4155C63.6463 15.5402 64.676 15.927 65.5679 16.5416C65.9711 16.8449 66.3107 17.2241 66.5674 17.6578C66.7936 18.112 66.9002 18.6162 66.8772 19.1228C65.8908 19.5482 64.7837 19.6048 63.7588 19.2822C63.2782 19.1433 62.8154 18.9493 62.3795 18.7042C61.9479 18.4832 61.5336 18.23 61.1402 17.9468Z" fill="#C4A386"/>
<path d="M64.3315 13.4065C63.7436 13.4065 62.826 13.4603 62.0793 12.9442C61.8769 12.7962 61.6833 12.6365 61.4997 12.4659C61.3074 12.2957 61.127 12.1125 60.9599 11.9177C60.599 11.529 60.2651 11.1161 59.9605 10.682C59.3808 9.82496 58.881 8.93797 58.5212 8.27027C58.3413 7.94138 58.2156 7.65253 58.1157 7.45324L58.0481 7.283L58.0115 7.16406L58.4772 7.19671C58.7871 7.23755 58.9683 7.26478 59.2709 7.34347C60.2257 7.58514 61.1459 7.94681 62.0094 8.41976C63.0069 8.93445 63.8695 9.67511 64.528 10.5823C64.8336 11.0134 65.0385 11.5071 65.1277 12.0274C65.2272 12.4636 65.2244 12.9015 65.1277 13.3528" fill="#C4A386"/>
<g clip-path="url(#clip1_167_40)">
<path fill-rule="evenodd" clip-rule="evenodd" d="M36.3843 26.4687C31.2345 28.1049 27.6555 33.3159 28.0264 38.6381C28.3545 43.3527 31.3104 47.4162 35.6142 49.0695C37.7831 49.9027 41.1266 50.0176 43.3834 49.3362C52.2741 46.6521 54.9655 35.4267 48.2217 29.1567C45.7999 26.905 43.3744 25.979 39.9546 26.0004C38.6019 26.0088 37.2902 26.1807 36.3843 26.4687ZM41.4929 27.6562L42.9379 29.0776L38.4422 33.5508L33.9466 38.0244L36.9129 40.9649L39.8792 43.9056L42.9421 40.8813L46.0051 37.8567L45.2189 37.0753L44.4328 36.2941L42.9314 37.7708L41.4298 39.2478L39.9995 37.8259L38.569 36.404L41.4997 33.4913L44.43 30.5786L48.1101 34.2365L51.7902 37.8944L45.8641 43.7848L39.9376 49.6755L34.0359 43.8094L28.1344 37.9435L33.9498 32.0893C37.1485 28.8694 39.8288 26.235 39.9067 26.235C39.9843 26.235 40.698 26.8745 41.4929 27.6562Z" fill="#C4A386"/>
</g>
</g>
<defs>
<clipPath id="clip0_167_40">
<rect width="80" height="80" fill="white"/>
</clipPath>
<clipPath id="clip1_167_40">
<rect width="24" height="24" fill="white" transform="translate(28 26)"/>
</clipPath>
</defs>
</svg>
