<svg width="88" height="32" viewBox="0 0 88 32" fill="none" xmlns="http://www.w3.org/2000/svg">
<path d="M6.69674 26.5191V26.1284C5.14214 26.1284 5.14214 24.5355 5.14214 22.1612V9.8388C5.14214 7.46448 5.14214 5.87158 6.69674 5.87158V5.48087H0V5.87158C1.5546 5.87158 1.5546 7.46448 1.5546 9.8388V22.1612C1.5546 24.5355 1.5546 26.1284 0 26.1284V26.5191H6.69674Z" fill="#2C2C2C"/>
<path d="M8.14553 5.48087V5.87158C9.70013 5.87158 9.70013 7.46448 9.70013 9.8388V22.1612C9.70013 24.5355 9.70013 26.1284 8.14553 26.1284V26.5191H14.8423V26.1284C13.2877 26.1284 13.2877 24.5355 13.2877 22.1612V12.9945L24.2596 26.5191H28.3254V26.1284C26.7708 26.1284 26.7708 24.5355 26.7708 22.1612V9.8388C26.7708 7.46448 26.7708 5.87158 28.3254 5.87158V5.48087H21.6287V5.87158C23.0338 5.87158 23.1833 7.19399 23.1833 9.2377V19.6366L11.8228 5.48087H8.14553Z" fill="#2C2C2C"/>
<path d="M30.1089 5.48087V10.4098H30.4976C30.4976 8.84699 32.0821 8.84699 34.4439 8.84699H36.8953V22.1612C36.8953 24.5355 36.8953 26.1284 35.3706 26.1284V26.5191H42.0375V26.1284C40.4829 26.1284 40.4829 24.5355 40.4829 22.1612V8.84699H42.9942C45.3559 8.84699 46.9404 8.84699 46.9404 10.4098H47.3291V5.48087H30.1089Z" fill="#2C2C2C"/>
<path d="M49.1359 5.48087V5.87158C50.6905 5.87158 50.6905 7.46448 50.6905 9.8388V22.1612C50.6905 24.5355 50.6905 26.1284 49.1359 26.1284V26.5191H64.2335L64.6819 21.5902H64.2634C64.2634 23.153 62.2603 23.153 59.8986 23.153H54.2781V8.84699H59.8986C62.2603 8.84699 63.8448 8.84699 63.8448 10.4098H64.2335V5.48087H49.1359ZM59.8687 19.3661C60.1078 17.7131 61.2738 16.1503 62.8284 16.1503V15.7596C61.2738 15.7596 60.1078 14.2268 59.8687 12.5437H59.48C59.2707 14.2268 58.0749 15.7596 56.5502 15.7596V16.1503C58.0749 16.1503 59.2707 17.7131 59.48 19.3661H59.8687Z" fill="#2C2C2C"/>
<path d="M88 16C88 8.66666 82.6187 5 77.2374 5C71.8262 5 66.4449 8.66666 66.4449 16C66.4449 23.3333 71.8262 27 77.2374 27C82.6187 27 88 23.3333 88 16ZM84.5022 16C84.5022 20.929 80.8548 23.3634 77.2374 23.3634C73.5901 23.3634 69.9726 20.929 69.9726 16C69.9726 11.071 73.5901 8.63661 77.2374 8.63661C80.8548 8.63661 84.5022 11.071 84.5022 16ZM77.5065 19.306C77.7456 17.6229 78.9116 16.0902 80.4662 16.0902V15.6694C78.9116 15.6694 77.7456 14.1366 77.5065 12.4536H77.1178C76.9085 14.1366 75.7127 15.6694 74.188 15.6694V16.0902C75.7127 16.0902 76.9085 17.6229 77.1178 19.306H77.5065Z" fill="#2C2C2C"/>
<path d="M59.8693 19.3662C60.1084 17.7132 61.2744 16.1503 62.829 16.1503V15.7596C61.2744 15.7596 60.1084 14.2268 59.8693 12.5438H59.4806C59.2713 14.2268 58.0755 15.7596 56.5508 15.7596V16.1503C58.0755 16.1503 59.2713 17.7132 59.4806 19.3662H59.8693Z" fill="#996830"/>
<path d="M77.507 19.3061C77.7462 17.623 78.9122 16.0902 80.4668 16.0902V15.6695C78.9122 15.6695 77.7462 14.1367 77.507 12.4536H77.1184C76.9091 14.1367 75.7133 15.6695 74.1886 15.6695V16.0902C75.7133 16.0902 76.9091 17.623 77.1184 19.3061H77.507Z" fill="#996830"/>
</svg>
