    <svg width="40" height="40" viewBox="0 0 40 40" fill="none" xmlns="http://www.w3.org/2000/svg">
<path d="M30 13.0126C29.251 13.3594 28.4567 13.5871 27.6433 13.6881C28.4893 13.1564 29.14 12.3162 29.4462 11.3135C28.6408 11.8134 27.7596 12.1656 26.8407 12.3549C26.0652 11.4886 24.9807 10.9979 23.8461 11C21.581 11 19.7426 12.921 19.7426 15.2907C19.7426 15.6274 19.7789 15.9556 19.8498 16.269C16.4392 16.0897 13.4165 14.3821 11.3923 11.7855C11.0389 12.4185 10.8373 13.1564 10.8373 13.943C10.8373 15.4311 11.5614 16.7447 12.6621 17.5144C12.0104 17.4935 11.373 17.3094 10.8033 16.9776V17.0323C10.8033 19.1108 12.2179 20.8453 14.094 21.2403C13.4898 21.4114 12.8562 21.4365 12.2413 21.3137C12.7637 23.0188 14.2795 24.2591 16.0743 24.2952C14.6702 25.4443 12.9013 26.1316 10.9784 26.1316C10.6514 26.1312 10.3248 26.1111 10 26.0715C11.8157 27.2887 13.9729 28 16.2899 28C23.8372 28 27.9636 21.46 27.9636 15.7885C27.9636 15.603 27.9636 15.4175 27.9508 15.2333C28.7538 14.6257 29.4472 13.8738 29.9987 13.0126H30Z" fill="#996830"/>
<circle cx="20" cy="20" r="19.5" stroke="#E6D8CC"/>
</svg>
