<svg width="40" height="40" viewBox="0 0 40 40" fill="none" xmlns="http://www.w3.org/2000/svg">
<path d="M29.58 15.0501C30 16.6501 30 19.9901 30 19.9901C30 19.9901 30 23.3301 29.58 24.9301C29.36 25.8101 28.68 26.5101 27.82 26.7501C26.26 27.1901 20 27.1901 20 27.1901C20 27.1901 13.74 27.1901 12.18 26.7501C11.32 26.5101 10.64 25.8101 10.42 24.9301C10 23.3301 10 19.9901 10 19.9901C10 19.9901 10 16.6501 10.42 15.0501C10.64 14.1701 11.32 13.4701 12.18 13.2301C13.74 12.8101 20 12.8101 20 12.8101C20 12.8101 26.26 12.8101 27.82 13.2301C28.68 13.4701 29.36 14.1701 29.58 15.0501ZM18.12 23.4301L23.12 20.3101L18.12 17.1901V23.4301Z" fill="#996830"/>
<circle cx="20" cy="20" r="19.5" stroke="#E6D8CC"/>
</svg>
